<svg xmlns="http://www.w3.org/2000/svg" viewBox="0 0 40 32.01"><defs><style>.cls-1{fill:#25a085;}</style></defs><g id="Layer_2" data-name="Layer 2"><g id="Layer_1-2" data-name="Layer 1"><path class="cls-1" d="M24.55.08a2,2,0,0,0-2.47,1.37l-8,28a2,2,0,0,0,3.85,1.1l8-28A2,2,0,0,0,24.55.08Zm5,7.51a2,2,0,0,0,0,2.83L35.17,16l-5.59,5.59a2,2,0,1,0,2.83,2.83l7-7a2,2,0,0,0,0-2.83l-7-7a2,2,0,0,0-2.83,0Zm-19.17,0a2,2,0,0,0-2.83,0l-7,7a2,2,0,0,0,0,2.83l7,7a2,2,0,1,0,2.83-2.83L4.83,16l5.59-5.58a2,2,0,0,0,0-2.83Z"/></g></g></svg>